<mxfile host="app.diagrams.net" agent="Mozilla/5.0 (Windows NT 10.0; Win64; x64) AppleWebKit/537.36 (KHTML, like Gecko) Chrome/137.0.0.0 Safari/537.36" version="27.1.6">
  <diagram name="Página-1" id="TtSRWWI0DJAhSEmeBF82">
    <mxGraphModel dx="1426" dy="783" grid="1" gridSize="10" guides="1" tooltips="1" connect="1" arrows="1" fold="1" page="1" pageScale="1" pageWidth="827" pageHeight="1169" math="0" shadow="0">
      <root>
        <mxCell id="0" />
        <mxCell id="1" parent="0" />
        <mxCell id="oMXzvevMvstZdU8vUpr7-19" style="edgeStyle=orthogonalEdgeStyle;rounded=0;orthogonalLoop=1;jettySize=auto;html=1;endArrow=none;startFill=0;" edge="1" parent="1" source="oMXzvevMvstZdU8vUpr7-1" target="oMXzvevMvstZdU8vUpr7-15">
          <mxGeometry relative="1" as="geometry" />
        </mxCell>
        <mxCell id="oMXzvevMvstZdU8vUpr7-20" style="edgeStyle=orthogonalEdgeStyle;rounded=0;orthogonalLoop=1;jettySize=auto;html=1;endArrow=none;startFill=0;" edge="1" parent="1" source="oMXzvevMvstZdU8vUpr7-1" target="oMXzvevMvstZdU8vUpr7-18">
          <mxGeometry relative="1" as="geometry">
            <Array as="points">
              <mxPoint x="470" y="170" />
              <mxPoint x="470" y="260" />
            </Array>
          </mxGeometry>
        </mxCell>
        <mxCell id="oMXzvevMvstZdU8vUpr7-22" style="edgeStyle=orthogonalEdgeStyle;rounded=0;orthogonalLoop=1;jettySize=auto;html=1;endArrow=none;startFill=0;" edge="1" parent="1" source="oMXzvevMvstZdU8vUpr7-1" target="oMXzvevMvstZdU8vUpr7-13">
          <mxGeometry relative="1" as="geometry" />
        </mxCell>
        <mxCell id="oMXzvevMvstZdU8vUpr7-23" style="edgeStyle=orthogonalEdgeStyle;rounded=0;orthogonalLoop=1;jettySize=auto;html=1;entryX=1;entryY=0.5;entryDx=0;entryDy=0;endArrow=none;startFill=0;" edge="1" parent="1" source="oMXzvevMvstZdU8vUpr7-1" target="oMXzvevMvstZdU8vUpr7-16">
          <mxGeometry relative="1" as="geometry" />
        </mxCell>
        <mxCell id="oMXzvevMvstZdU8vUpr7-25" style="edgeStyle=orthogonalEdgeStyle;rounded=0;orthogonalLoop=1;jettySize=auto;html=1;entryX=1;entryY=0.5;entryDx=0;entryDy=0;endArrow=none;startFill=0;" edge="1" parent="1" source="oMXzvevMvstZdU8vUpr7-1" target="oMXzvevMvstZdU8vUpr7-17">
          <mxGeometry relative="1" as="geometry">
            <Array as="points">
              <mxPoint x="360" y="170" />
              <mxPoint x="360" y="210" />
            </Array>
          </mxGeometry>
        </mxCell>
        <mxCell id="oMXzvevMvstZdU8vUpr7-1" value="No autenticado" style="shape=umlActor;verticalLabelPosition=bottom;verticalAlign=top;html=1;outlineConnect=0;" vertex="1" parent="1">
          <mxGeometry x="399" y="140" width="30" height="60" as="geometry" />
        </mxCell>
        <mxCell id="oMXzvevMvstZdU8vUpr7-11" style="edgeStyle=orthogonalEdgeStyle;rounded=0;orthogonalLoop=1;jettySize=auto;html=1;endArrow=block;endFill=0;strokeWidth=2;endSize=10;" edge="1" parent="1" source="oMXzvevMvstZdU8vUpr7-2">
          <mxGeometry relative="1" as="geometry">
            <mxPoint x="414" y="230" as="targetPoint" />
          </mxGeometry>
        </mxCell>
        <mxCell id="oMXzvevMvstZdU8vUpr7-2" value="Visitante" style="shape=umlActor;verticalLabelPosition=bottom;verticalAlign=top;html=1;outlineConnect=0;" vertex="1" parent="1">
          <mxGeometry x="399" y="270" width="30" height="60" as="geometry" />
        </mxCell>
        <mxCell id="oMXzvevMvstZdU8vUpr7-12" style="edgeStyle=orthogonalEdgeStyle;rounded=0;orthogonalLoop=1;jettySize=auto;html=1;endArrow=block;endFill=0;endSize=10;strokeWidth=2;" edge="1" parent="1" source="oMXzvevMvstZdU8vUpr7-3">
          <mxGeometry relative="1" as="geometry">
            <mxPoint x="414" y="350" as="targetPoint" />
          </mxGeometry>
        </mxCell>
        <mxCell id="oMXzvevMvstZdU8vUpr7-29" style="edgeStyle=orthogonalEdgeStyle;rounded=0;orthogonalLoop=1;jettySize=auto;html=1;endArrow=none;startFill=0;" edge="1" parent="1" source="oMXzvevMvstZdU8vUpr7-3" target="oMXzvevMvstZdU8vUpr7-27">
          <mxGeometry relative="1" as="geometry" />
        </mxCell>
        <mxCell id="oMXzvevMvstZdU8vUpr7-30" style="edgeStyle=orthogonalEdgeStyle;rounded=0;orthogonalLoop=1;jettySize=auto;html=1;entryX=0;entryY=0.5;entryDx=0;entryDy=0;endArrow=none;startFill=0;" edge="1" parent="1" source="oMXzvevMvstZdU8vUpr7-3" target="oMXzvevMvstZdU8vUpr7-26">
          <mxGeometry relative="1" as="geometry" />
        </mxCell>
        <mxCell id="oMXzvevMvstZdU8vUpr7-31" style="edgeStyle=orthogonalEdgeStyle;rounded=0;orthogonalLoop=1;jettySize=auto;html=1;entryX=0;entryY=0.5;entryDx=0;entryDy=0;endArrow=none;startFill=0;" edge="1" parent="1" target="oMXzvevMvstZdU8vUpr7-28">
          <mxGeometry relative="1" as="geometry">
            <mxPoint x="434" y="490" as="sourcePoint" />
            <mxPoint x="580" y="470" as="targetPoint" />
            <Array as="points">
              <mxPoint x="455" y="490" />
              <mxPoint x="455" y="450" />
            </Array>
          </mxGeometry>
        </mxCell>
        <mxCell id="oMXzvevMvstZdU8vUpr7-36" style="edgeStyle=orthogonalEdgeStyle;rounded=0;orthogonalLoop=1;jettySize=auto;html=1;entryX=1;entryY=0.5;entryDx=0;entryDy=0;endArrow=none;startFill=0;" edge="1" parent="1" source="oMXzvevMvstZdU8vUpr7-3" target="oMXzvevMvstZdU8vUpr7-32">
          <mxGeometry relative="1" as="geometry" />
        </mxCell>
        <mxCell id="oMXzvevMvstZdU8vUpr7-37" style="edgeStyle=orthogonalEdgeStyle;rounded=0;orthogonalLoop=1;jettySize=auto;html=1;endArrow=none;startFill=0;" edge="1" parent="1" source="oMXzvevMvstZdU8vUpr7-3" target="oMXzvevMvstZdU8vUpr7-33">
          <mxGeometry relative="1" as="geometry" />
        </mxCell>
        <mxCell id="oMXzvevMvstZdU8vUpr7-38" style="edgeStyle=orthogonalEdgeStyle;rounded=0;orthogonalLoop=1;jettySize=auto;html=1;endArrow=none;startFill=0;" edge="1" parent="1" source="oMXzvevMvstZdU8vUpr7-3" target="oMXzvevMvstZdU8vUpr7-34">
          <mxGeometry relative="1" as="geometry">
            <Array as="points">
              <mxPoint x="220" y="490" />
              <mxPoint x="220" y="430" />
            </Array>
          </mxGeometry>
        </mxCell>
        <mxCell id="oMXzvevMvstZdU8vUpr7-39" style="edgeStyle=orthogonalEdgeStyle;rounded=0;orthogonalLoop=1;jettySize=auto;html=1;endArrow=none;startFill=0;" edge="1" parent="1" source="oMXzvevMvstZdU8vUpr7-3" target="oMXzvevMvstZdU8vUpr7-35">
          <mxGeometry relative="1" as="geometry">
            <Array as="points">
              <mxPoint x="220" y="490" />
              <mxPoint x="220" y="520" />
            </Array>
          </mxGeometry>
        </mxCell>
        <mxCell id="oMXzvevMvstZdU8vUpr7-45" style="edgeStyle=orthogonalEdgeStyle;rounded=0;orthogonalLoop=1;jettySize=auto;html=1;endArrow=none;startFill=0;" edge="1" parent="1" target="oMXzvevMvstZdU8vUpr7-40">
          <mxGeometry relative="1" as="geometry">
            <mxPoint x="414" y="550" as="sourcePoint" />
            <Array as="points">
              <mxPoint x="414" y="590" />
              <mxPoint x="200" y="590" />
            </Array>
          </mxGeometry>
        </mxCell>
        <mxCell id="oMXzvevMvstZdU8vUpr7-46" style="edgeStyle=orthogonalEdgeStyle;rounded=0;orthogonalLoop=1;jettySize=auto;html=1;endArrow=none;startFill=0;" edge="1" parent="1" target="oMXzvevMvstZdU8vUpr7-41">
          <mxGeometry relative="1" as="geometry">
            <mxPoint x="414" y="550" as="sourcePoint" />
            <Array as="points">
              <mxPoint x="414" y="590" />
              <mxPoint x="353" y="590" />
            </Array>
          </mxGeometry>
        </mxCell>
        <mxCell id="oMXzvevMvstZdU8vUpr7-47" style="edgeStyle=orthogonalEdgeStyle;rounded=0;orthogonalLoop=1;jettySize=auto;html=1;endArrow=none;startFill=0;" edge="1" parent="1" target="oMXzvevMvstZdU8vUpr7-43">
          <mxGeometry relative="1" as="geometry">
            <mxPoint x="414" y="550" as="sourcePoint" />
            <Array as="points">
              <mxPoint x="414" y="590" />
              <mxPoint x="500" y="590" />
            </Array>
          </mxGeometry>
        </mxCell>
        <mxCell id="oMXzvevMvstZdU8vUpr7-48" style="edgeStyle=orthogonalEdgeStyle;rounded=0;orthogonalLoop=1;jettySize=auto;html=1;endArrow=none;startFill=0;" edge="1" parent="1" target="oMXzvevMvstZdU8vUpr7-44">
          <mxGeometry relative="1" as="geometry">
            <mxPoint x="414" y="550" as="sourcePoint" />
            <Array as="points">
              <mxPoint x="414" y="590" />
              <mxPoint x="660" y="590" />
            </Array>
          </mxGeometry>
        </mxCell>
        <mxCell id="oMXzvevMvstZdU8vUpr7-3" value="Administrador" style="shape=umlActor;verticalLabelPosition=bottom;verticalAlign=top;html=1;outlineConnect=0;" vertex="1" parent="1">
          <mxGeometry x="399" y="460" width="30" height="60" as="geometry" />
        </mxCell>
        <mxCell id="oMXzvevMvstZdU8vUpr7-13" value="Consultar proyectos" style="ellipse;whiteSpace=wrap;html=1;" vertex="1" parent="1">
          <mxGeometry x="353.5" y="10" width="120" height="80" as="geometry" />
        </mxCell>
        <mxCell id="oMXzvevMvstZdU8vUpr7-14" value="Consultar habilidades" style="ellipse;whiteSpace=wrap;html=1;" vertex="1" parent="1">
          <mxGeometry x="490" y="30" width="120" height="80" as="geometry" />
        </mxCell>
        <mxCell id="oMXzvevMvstZdU8vUpr7-15" value="Consultar experiencia y educación" style="ellipse;whiteSpace=wrap;html=1;" vertex="1" parent="1">
          <mxGeometry x="490" y="130" width="120" height="80" as="geometry" />
        </mxCell>
        <mxCell id="oMXzvevMvstZdU8vUpr7-16" value="Registrar mensaje por correo" style="ellipse;whiteSpace=wrap;html=1;" vertex="1" parent="1">
          <mxGeometry x="210" y="70" width="120" height="80" as="geometry" />
        </mxCell>
        <mxCell id="oMXzvevMvstZdU8vUpr7-17" value="Iniciar sesión" style="ellipse;whiteSpace=wrap;html=1;" vertex="1" parent="1">
          <mxGeometry x="200" y="170" width="120" height="80" as="geometry" />
        </mxCell>
        <mxCell id="oMXzvevMvstZdU8vUpr7-18" value="Registrar usuario." style="ellipse;whiteSpace=wrap;html=1;" vertex="1" parent="1">
          <mxGeometry x="490" y="220" width="120" height="80" as="geometry" />
        </mxCell>
        <mxCell id="oMXzvevMvstZdU8vUpr7-21" style="edgeStyle=orthogonalEdgeStyle;rounded=0;orthogonalLoop=1;jettySize=auto;html=1;entryX=-0.008;entryY=0.663;entryDx=0;entryDy=0;entryPerimeter=0;endArrow=none;startFill=0;" edge="1" parent="1" source="oMXzvevMvstZdU8vUpr7-1" target="oMXzvevMvstZdU8vUpr7-14">
          <mxGeometry relative="1" as="geometry">
            <Array as="points">
              <mxPoint x="470" y="170" />
              <mxPoint x="470" y="83" />
            </Array>
          </mxGeometry>
        </mxCell>
        <mxCell id="oMXzvevMvstZdU8vUpr7-26" value="Registrar proyecto." style="ellipse;whiteSpace=wrap;html=1;" vertex="1" parent="1">
          <mxGeometry x="480" y="350" width="120" height="80" as="geometry" />
        </mxCell>
        <mxCell id="oMXzvevMvstZdU8vUpr7-27" value="Registrar experiencia y educación." style="ellipse;whiteSpace=wrap;html=1;" vertex="1" parent="1">
          <mxGeometry x="480" y="480" width="120" height="80" as="geometry" />
        </mxCell>
        <mxCell id="oMXzvevMvstZdU8vUpr7-28" value="Registrar habilidad." style="ellipse;whiteSpace=wrap;html=1;" vertex="1" parent="1">
          <mxGeometry x="610" y="410" width="120" height="80" as="geometry" />
        </mxCell>
        <mxCell id="oMXzvevMvstZdU8vUpr7-32" value="Modificar proyecto." style="ellipse;whiteSpace=wrap;html=1;" vertex="1" parent="1">
          <mxGeometry x="220" y="370" width="120" height="80" as="geometry" />
        </mxCell>
        <mxCell id="oMXzvevMvstZdU8vUpr7-33" value="Modificar habilidad." style="ellipse;whiteSpace=wrap;html=1;" vertex="1" parent="1">
          <mxGeometry x="220" y="500" width="120" height="80" as="geometry" />
        </mxCell>
        <mxCell id="oMXzvevMvstZdU8vUpr7-34" value="Modificar experiencia y educación." style="ellipse;whiteSpace=wrap;html=1;" vertex="1" parent="1">
          <mxGeometry x="80" y="390" width="120" height="80" as="geometry" />
        </mxCell>
        <mxCell id="oMXzvevMvstZdU8vUpr7-35" value="Modificar usuario." style="ellipse;whiteSpace=wrap;html=1;" vertex="1" parent="1">
          <mxGeometry x="80" y="480" width="120" height="80" as="geometry" />
        </mxCell>
        <mxCell id="oMXzvevMvstZdU8vUpr7-40" value="Eliminar proyecto." style="ellipse;whiteSpace=wrap;html=1;" vertex="1" parent="1">
          <mxGeometry x="140" y="610" width="120" height="80" as="geometry" />
        </mxCell>
        <mxCell id="oMXzvevMvstZdU8vUpr7-41" value="Eliminar experiencia y educación." style="ellipse;whiteSpace=wrap;html=1;" vertex="1" parent="1">
          <mxGeometry x="293" y="610" width="120" height="80" as="geometry" />
        </mxCell>
        <mxCell id="oMXzvevMvstZdU8vUpr7-43" value="Eliminar usuario." style="ellipse;whiteSpace=wrap;html=1;" vertex="1" parent="1">
          <mxGeometry x="440" y="610" width="120" height="80" as="geometry" />
        </mxCell>
        <mxCell id="oMXzvevMvstZdU8vUpr7-44" value="Eliminar habilidad." style="ellipse;whiteSpace=wrap;html=1;" vertex="1" parent="1">
          <mxGeometry x="600" y="610" width="120" height="80" as="geometry" />
        </mxCell>
      </root>
    </mxGraphModel>
  </diagram>
</mxfile>
